<svg width="70" height="70" viewBox="0 0 70 70" fill="none" xmlns="http://www.w3.org/2000/svg">
<path d="M55.8937 26.3505C55.7953 24.1185 55.4344 22.5839 54.9173 21.2543C54.3839 19.8428 53.5633 18.5792 52.4881 17.5287C51.4376 16.4619 50.1657 15.6329 48.7706 15.1079C47.4332 14.5908 45.9067 14.2298 43.6747 14.1314C41.4259 14.0247 40.7121 14 35.0087 14C29.3053 14 28.5914 14.0247 26.351 14.1231C24.1189 14.2215 22.5844 14.5828 21.2551 15.0995C19.8433 15.6329 18.5797 16.4536 17.5292 17.5287C16.4624 18.5792 15.6337 19.8512 15.1083 21.2463C14.5913 22.5839 14.2303 24.1101 14.1319 26.3422C14.0252 28.5909 14.0005 29.3048 14.0005 35.0082C14.0005 40.7116 14.0252 41.4255 14.1236 43.6659C14.222 45.8979 14.5833 47.4325 15.1003 48.7621C15.6337 50.1736 16.4624 51.4372 17.5292 52.4877C18.5797 53.5545 19.8517 54.3835 21.2467 54.9085C22.5844 55.4256 24.1106 55.7866 26.343 55.885C28.5831 55.9837 29.2973 56.0081 35.0006 56.0081C40.704 56.0081 41.4179 55.9837 43.6583 55.885C45.8904 55.7866 47.4249 55.4256 48.7542 54.9085C51.5774 53.817 53.8095 51.585 54.901 48.7621C55.4177 47.4244 55.779 45.8979 55.8774 43.6659C55.9758 41.4255 56.0005 40.7116 56.0005 35.0082C56.0005 29.3048 55.9922 28.5909 55.8937 26.3505ZM52.1108 43.5018C52.0204 45.5533 51.6758 46.6612 51.3886 47.3998C50.6827 49.2298 49.2303 50.6823 47.4002 51.3882C46.6616 51.6754 45.5458 52.02 43.5022 52.1101C41.2865 52.2088 40.622 52.2332 35.017 52.2332C29.412 52.2332 28.7392 52.2088 26.5315 52.1101C24.4799 52.02 23.372 51.6754 22.6335 51.3882C21.7228 51.0516 20.8938 50.5182 20.2209 49.8206C19.5234 49.1394 18.99 48.3188 18.6534 47.4081C18.3662 46.6695 18.0216 45.5533 17.9315 43.5101C17.8328 41.2944 17.8084 40.6295 17.8084 35.0246C17.8084 29.4196 17.8328 28.7467 17.9315 26.5393C18.0216 24.4878 18.3662 23.3799 18.6534 22.6413C18.99 21.7303 19.5234 20.9017 20.2293 20.2285C20.9101 19.5309 21.7308 18.9975 22.6418 18.6613C23.3804 18.374 24.4966 18.0294 26.5398 17.939C28.7555 17.8406 29.4204 17.8159 35.025 17.8159C40.6383 17.8159 41.3028 17.8406 43.5105 17.939C45.5621 18.0294 46.67 18.374 47.4085 18.6613C48.3192 18.9975 49.1482 19.5309 49.8211 20.2285C50.5186 20.9097 51.052 21.7303 51.3886 22.6413C51.6758 23.3799 52.0204 24.4958 52.1108 26.5393C52.2092 28.755 52.2339 29.4196 52.2339 35.0246C52.2339 40.6295 52.2092 41.286 52.1108 43.5018Z" fill="white"/>
<path d="M35.0086 24.2173C29.051 24.2173 24.2173 29.0507 24.2173 35.0086C24.2173 40.9665 29.051 45.7999 35.0086 45.7999C40.9665 45.7999 45.7999 40.9665 45.7999 35.0086C45.7999 29.0507 40.9665 24.2173 35.0086 24.2173ZM35.0086 42.0087C31.1436 42.0087 28.0085 38.8739 28.0085 35.0086C28.0085 31.1433 31.1436 28.0085 35.0086 28.0085C38.8739 28.0085 42.0087 31.1433 42.0087 35.0086C42.0087 38.8739 38.8739 42.0087 35.0086 42.0087V42.0087Z" fill="white"/>
<path d="M48.7459 23.7903C48.7459 25.1815 47.6179 26.3096 46.2263 26.3096C44.8351 26.3096 43.707 25.1815 43.707 23.7903C43.707 22.3987 44.8351 21.271 46.2263 21.271C47.6179 21.271 48.7459 22.3987 48.7459 23.7903V23.7903Z" fill="white"/>
<circle cx="35" cy="35" r="33" stroke="white" stroke-width="4"/>
</svg>
