<svg width="70" height="70" viewBox="0 0 70 70" fill="none" xmlns="http://www.w3.org/2000/svg">
<circle cx="35" cy="35" r="33" stroke="white" stroke-width="4"/>
<path d="M22.1682 15.4456C20.3545 15.7649 18.8692 17.2524 18.3285 19.2928C18.1574 19.9392 18.1574 21.45 18.3285 22.0963C18.7734 23.7941 19.9164 25.1569 21.3743 25.7488C21.9081 25.9668 22.0382 25.9824 22.8184 25.9824C23.9957 25.9824 24.7075 25.7254 25.6246 24.9467C26.4254 24.2691 27.2193 22.8673 27.4041 21.7926C27.5136 21.193 27.5136 20.0015 27.4041 19.4797C27.2809 18.8567 26.8429 17.8754 26.4391 17.3225C25.8368 16.4892 24.8444 15.7649 23.982 15.5313C23.5165 15.3989 22.6336 15.36 22.1682 15.4456ZM23.8451 16.8942C24.8307 17.2057 25.6588 18.0701 26.1037 19.2538C26.3433 19.8924 26.3775 21.1462 26.179 21.8861C25.7204 23.615 24.1531 24.8454 22.6542 24.6663C21.429 24.5183 20.464 23.8875 19.8754 22.844C19.2525 21.7303 19.1841 20.2195 19.6974 18.9813C20.4297 17.2134 22.1271 16.3568 23.8451 16.8942Z" fill="white"/>
<mask id="path-3-inside-1" fill="white">
<path d="M43.071 26.7294C41.3667 26.9163 39.7104 27.7418 38.54 28.9879C38.2594 29.2916 38.0062 29.533 37.9856 29.533C37.9651 29.533 37.9446 29.276 37.9446 28.9645C37.9446 28.2948 37.8214 27.9755 37.4449 27.6328L37.178 27.3914H33.879H30.58L30.2994 27.6017C29.7519 28.0144 29.7998 26.8151 29.8135 41.0744L29.834 53.7918L29.9846 54.0332C30.0736 54.1656 30.2584 54.3447 30.3952 54.4226C30.6348 54.5627 30.888 54.5705 34.0296 54.5939C36.2403 54.6095 37.4928 54.5861 37.6708 54.5316C37.9583 54.4459 38.3073 54.15 38.4442 53.8774C38.5058 53.7528 38.5332 51.876 38.5606 45.9262C38.5948 38.3098 38.6016 38.1307 38.7385 37.7023C39.4777 35.405 41.4968 34.5016 43.4337 35.6152C43.9197 35.8956 44.4946 36.5186 44.6863 36.9703C45.0216 37.788 45.0148 37.6322 45.0558 45.934L45.0969 53.7295L45.2886 54.0098C45.6787 54.5939 45.5418 54.5705 49.1419 54.5705H52.3588L52.6052 54.3836C52.7352 54.2824 52.92 54.0721 53.009 53.9242L53.1733 53.6438L53.1938 44.6879C53.2143 35.3894 53.2006 34.8832 52.9269 33.6605C52.1603 30.195 49.7648 27.5939 46.719 26.8852C45.9114 26.6983 44.036 26.6204 43.071 26.7294ZM45.6445 28.0534C47.3282 28.2247 48.656 28.9022 49.8537 30.2105C50.8872 31.3242 51.5375 32.6715 51.8865 34.4003C52.0029 34.9844 52.0097 35.5763 52.0097 44.135V53.2466H49.1351H46.2605L46.2262 45.5757C46.1852 38.0372 46.1852 37.897 46.0414 37.3052C45.7061 35.9423 45.049 35.0311 43.9402 34.3926C41.4147 32.9207 38.5606 34.3225 37.6297 37.4765C37.5065 37.8815 37.4997 38.3799 37.4655 45.5757L37.4312 53.2466L34.2281 53.27L31.0318 53.2856V40.981V28.6764H33.9406H36.8495L36.8563 30.7946V32.9207L38.2389 31.3164C39.7994 29.5097 39.9636 29.3539 40.7781 28.8788C42.1196 28.1001 43.6117 27.8431 45.6445 28.0534Z"/>
</mask>
<path d="M43.071 26.7294C41.3667 26.9163 39.7104 27.7418 38.54 28.9879C38.2594 29.2916 38.0062 29.533 37.9856 29.533C37.9651 29.533 37.9446 29.276 37.9446 28.9645C37.9446 28.2948 37.8214 27.9755 37.4449 27.6328L37.178 27.3914H33.879H30.58L30.2994 27.6017C29.7519 28.0144 29.7998 26.8151 29.8135 41.0744L29.834 53.7918L29.9846 54.0332C30.0736 54.1656 30.2584 54.3447 30.3952 54.4226C30.6348 54.5627 30.888 54.5705 34.0296 54.5939C36.2403 54.6095 37.4928 54.5861 37.6708 54.5316C37.9583 54.4459 38.3073 54.15 38.4442 53.8774C38.5058 53.7528 38.5332 51.876 38.5606 45.9262C38.5948 38.3098 38.6016 38.1307 38.7385 37.7023C39.4777 35.405 41.4968 34.5016 43.4337 35.6152C43.9197 35.8956 44.4946 36.5186 44.6863 36.9703C45.0216 37.788 45.0148 37.6322 45.0558 45.934L45.0969 53.7295L45.2886 54.0098C45.6787 54.5939 45.5418 54.5705 49.1419 54.5705H52.3588L52.6052 54.3836C52.7352 54.2824 52.92 54.0721 53.009 53.9242L53.1733 53.6438L53.1938 44.6879C53.2143 35.3894 53.2006 34.8832 52.9269 33.6605C52.1603 30.195 49.7648 27.5939 46.719 26.8852C45.9114 26.6983 44.036 26.6204 43.071 26.7294ZM45.6445 28.0534C47.3282 28.2247 48.656 28.9022 49.8537 30.2105C50.8872 31.3242 51.5375 32.6715 51.8865 34.4003C52.0029 34.9844 52.0097 35.5763 52.0097 44.135V53.2466H49.1351H46.2605L46.2262 45.5757C46.1852 38.0372 46.1852 37.897 46.0414 37.3052C45.7061 35.9423 45.049 35.0311 43.9402 34.3926C41.4147 32.9207 38.5606 34.3225 37.6297 37.4765C37.5065 37.8815 37.4997 38.3799 37.4655 45.5757L37.4312 53.2466L34.2281 53.27L31.0318 53.2856V40.981V28.6764H33.9406H36.8495L36.8563 30.7946V32.9207L38.2389 31.3164C39.7994 29.5097 39.9636 29.3539 40.7781 28.8788C42.1196 28.1001 43.6117 27.8431 45.6445 28.0534Z" fill="white"/>
<path d="M43.071 26.7294L49.1331 80.3881L49.0455 80.398L48.9579 80.4076L43.071 26.7294ZM38.54 28.9879L-1.12239 -7.65762L-0.971801 -7.82061L-0.819872 -7.98236L38.54 28.9879ZM37.4449 27.6328L73.6669 -12.4167L73.731 -12.3588L73.7949 -12.3006L37.4449 27.6328ZM37.178 27.3914V-26.6086H57.9754L73.4 -12.6582L37.178 27.3914ZM30.58 27.3914L-1.80069 -15.8231L12.5934 -26.6086H30.58V27.3914ZM30.2994 27.6017L-2.20571 -15.5193L-2.14358 -15.5661L-2.08131 -15.6128L30.2994 27.6017ZM29.8135 41.0744L-24.1865 41.1616L-24.1865 41.1439L-24.1865 41.1263L29.8135 41.0744ZM29.834 53.7918L-15.9844 82.3692L-24.141 69.2917L-24.1659 53.8789L29.834 53.7918ZM29.9846 54.0332L-14.834 84.1545L-15.3471 83.3911L-15.8339 82.6106L29.9846 54.0332ZM30.3952 54.4226L57.0978 7.48671L57.384 7.64952L57.6681 7.81581L30.3952 54.4226ZM34.0296 54.5939L33.6492 108.593L33.6386 108.592L33.628 108.592L34.0296 54.5939ZM37.6708 54.5316L21.854 2.89993L22.0512 2.83952L22.2488 2.78062L37.6708 54.5316ZM38.4442 53.8774L86.852 77.8084L86.7767 77.9605L86.7006 78.1122L38.4442 53.8774ZM38.5606 45.9262L92.56 46.1688L92.56 46.1746L38.5606 45.9262ZM38.7385 37.7023L-12.6986 21.2637L-12.6824 21.2132L-12.6662 21.1627L38.7385 37.7023ZM43.4337 35.6152L70.3493 -11.1988L70.3841 -11.1788L70.4189 -11.1587L43.4337 35.6152ZM44.6863 36.9703L94.397 15.879L94.524 16.1784L94.6475 16.4794L44.6863 36.9703ZM45.0558 45.934L-8.9434 46.2184L-8.94345 46.2097L-8.94349 46.2011L45.0558 45.934ZM45.0969 53.7295L0.516847 84.2027L-8.81522 70.5506L-8.90234 54.0139L45.0969 53.7295ZM45.2886 54.0098L89.8686 23.5366L90.0321 23.7757L90.1929 24.0165L45.2886 54.0098ZM52.3588 54.5705L84.9938 97.5932L70.5225 108.571H52.3588V54.5705ZM52.6052 54.3836L85.7776 96.9934L85.5102 97.2016L85.2402 97.4063L52.6052 54.3836ZM53.009 53.9242L99.6007 81.2227L99.4451 81.4883L99.2865 81.7521L53.009 53.9242ZM53.1733 53.6438L107.173 53.7676L107.14 68.3556L99.765 80.9424L53.1733 53.6438ZM53.1938 44.6879L107.194 44.8072L107.194 44.8117L53.1938 44.6879ZM52.9269 33.6605L0.231709 45.4597L0.216435 45.3915L0.201338 45.3233L52.9269 33.6605ZM46.719 26.8852L58.8941 -25.7244L58.9255 -25.7171L58.9568 -25.7098L46.719 26.8852ZM45.6445 28.0534L40.1778 81.7759L40.1331 81.7714L40.0884 81.7668L45.6445 28.0534ZM49.8537 30.2105L10.2723 66.9434L10.1477 66.8092L10.024 66.6741L49.8537 30.2105ZM51.8865 34.4003L104.818 23.7133L104.832 23.7818L104.846 23.8503L51.8865 34.4003ZM52.0097 53.2466H106.01V107.247H52.0097V53.2466ZM46.2605 53.2466V107.247H-7.49917L-7.73901 53.4875L46.2605 53.2466ZM46.2262 45.5757L100.225 45.2816L100.226 45.3082L100.226 45.3348L46.2262 45.5757ZM46.0414 37.3052L98.4771 24.4017L98.4968 24.4818L98.5163 24.5619L46.0414 37.3052ZM43.9402 34.3926L16.9898 81.1865L16.8697 81.1174L16.75 81.0476L43.9402 34.3926ZM37.6297 37.4765L89.4213 52.7615L89.3575 52.9777L89.2919 53.1933L37.6297 37.4765ZM37.4655 45.5757L-16.534 45.3348L-16.534 45.3269L-16.5339 45.3189L37.4655 45.5757ZM37.4312 53.2466L91.4307 53.4875L91.1926 106.856L37.8251 107.245L37.4312 53.2466ZM34.2281 53.27L34.6219 107.269L34.5566 107.269L34.4912 107.269L34.2281 53.27ZM31.0318 53.2856L31.2949 107.285L-22.9682 107.549L-22.9682 53.2856H31.0318ZM31.0318 28.6764H-22.9682V-25.3236H31.0318V28.6764ZM36.8495 28.6764V-25.3236H90.6753L90.8492 28.5019L36.8495 28.6764ZM36.8563 30.7946L90.856 30.6201L90.8563 30.7074V30.7946H36.8563ZM36.8563 32.9207L77.7619 68.1731L-17.1437 178.298L-17.1437 32.9207H36.8563ZM38.2389 31.3164L-2.66671 -3.93602L-2.64739 -3.95844L-2.62804 -3.98084L38.2389 31.3164ZM40.7781 28.8788L13.5717 -17.7667L13.6193 -17.7945L13.667 -17.8222L40.7781 28.8788ZM48.9579 80.4076C60.0019 79.1964 70.2298 74.124 77.8999 65.9581L-0.819872 -7.98236C9.191 -18.6403 22.7315 -25.3637 37.1841 -26.9487L48.9579 80.4076ZM78.2024 65.6334C77.4663 66.4302 76.6712 67.251 75.841 68.0595C75.4864 68.4048 74.7419 69.1229 73.7792 69.9728C73.4021 70.3057 72.2694 71.302 70.7413 72.4669C70.0857 72.9666 68.3202 74.2983 65.9043 75.757C64.7345 76.4633 62.3776 77.833 59.2197 79.1834C57.32 79.9957 49.1437 83.533 37.9856 83.533V-24.467C31.733 -24.467 26.781 -23.376 23.899 -22.5971C20.8253 -21.7665 18.3774 -20.8117 16.7568 -20.1187C13.601 -18.7693 11.2467 -17.401 10.08 -16.6965C7.67025 -15.2415 5.91252 -13.9153 5.26637 -13.4228C3.75714 -12.2723 2.64977 -11.2972 2.30371 -10.9917C1.40302 -10.1966 0.743196 -9.5578 0.489585 -9.31081C-0.138688 -8.69893 -0.666843 -8.15068 -1.12239 -7.65762L78.2024 65.6334ZM37.9856 83.533C8.51455 83.533 -5.56939 61.6019 -7.23728 59.0468C-11.0079 53.2703 -12.7454 48.1258 -13.2884 46.4848C-14.6224 42.4532 -15.1625 39.1612 -15.299 38.3399C-15.6978 35.9402 -15.845 34.0255 -15.8929 33.3839C-16.0215 31.6603 -16.0554 30.1432 -16.0554 28.9645H91.9446C91.9446 28.0973 91.9209 26.8645 91.8077 25.3472C91.7675 24.8088 91.6292 22.9779 91.2401 20.6361C91.1084 19.8438 90.5733 16.5743 89.2444 12.558C88.7039 10.9246 86.9689 5.78591 83.2009 0.0133437C81.2795 -2.93014 77.4369 -8.22037 71.0194 -13.1835C64.222 -18.4406 52.9193 -24.467 37.9856 -24.467V83.533ZM-16.0554 28.9645C-16.0554 31.3014 -15.9571 38.5717 -12.6884 47.2362C-8.95953 57.1207 -3.11103 63.7377 1.09494 67.5662L73.7949 -12.3006C78.3773 -8.12941 84.4756 -1.18139 88.3602 9.11577C91.7846 18.1931 91.9446 25.9579 91.9446 28.9645H-16.0554ZM1.22292 67.6824L0.955991 67.4409L73.4 -12.6582L73.6669 -12.4167L1.22292 67.6824ZM37.178 81.3914H33.879V-26.6086H37.178V81.3914ZM33.879 81.3914H30.58V-26.6086H33.879V81.3914ZM62.9608 70.6058L62.6802 70.8161L-2.08131 -15.6128L-1.80069 -15.8231L62.9608 70.6058ZM62.8046 70.7226C60.3004 72.6103 58.1837 73.8578 57.4495 74.2868C55.8822 75.2028 58.4572 73.7411 60.3858 72.4359C63.2497 70.4978 67.2717 67.3745 71.2308 62.7069C75.1607 58.0739 77.8211 53.3481 79.6118 49.1767C82.6963 41.9913 83.3769 35.9049 83.5286 34.6208C83.764 32.6276 83.8078 31.1775 83.8116 31.0716C83.8231 30.7491 83.8089 31.012 83.8066 33.0725C83.8045 34.8981 83.8099 37.3519 83.8134 41.0226L-24.1865 41.1263C-24.1924 35.0237 -24.2212 30.0633 -24.1197 27.2195C-24.0885 26.3465 -24.0085 24.3457 -23.7257 21.9515C-23.5267 20.2663 -22.7875 13.9285 -19.6307 6.57467C-17.8038 2.31905 -15.1038 -2.47017 -11.1307 -7.15424C-7.12825 -11.8728 -3.05918 -15.0348 -0.144227 -17.0075C1.83544 -18.3472 4.46551 -19.8394 2.95762 -18.9582C2.28289 -18.5639 0.230007 -17.3554 -2.20571 -15.5193L62.8046 70.7226ZM83.8134 40.9872L83.8339 53.7046L-24.1659 53.8789L-24.1865 41.1616L83.8134 40.9872ZM75.6524 25.2143L75.803 25.4557L-15.8339 82.6106L-15.9844 82.3692L75.6524 25.2143ZM74.8031 23.9118C72.0162 19.7651 69.2181 16.8679 67.4614 15.1908C66.3963 14.1738 65.1242 13.0454 63.6364 11.877C62.2534 10.791 60.035 9.15773 57.0978 7.48671L3.6927 101.358C-4.58021 96.6518 -10.6862 90.3262 -14.834 84.1545L74.8031 23.9118ZM57.6681 7.81581C55.8356 6.74349 53.1232 5.3019 49.6723 3.99059C46.3335 2.72191 43.3447 1.96978 40.9756 1.50698C36.9956 0.729481 33.8575 0.620685 33.6095 0.609262C32.7694 0.570555 32.2414 0.579104 34.4312 0.595389L33.628 108.592C32.6763 108.585 30.4508 108.578 28.6388 108.495C27.7817 108.455 15.6823 108.379 3.12235 101.029L57.6681 7.81581ZM34.41 0.595236C35.3388 0.60178 35.7006 0.596718 35.6674 0.5973C35.6352 0.597864 35.522 0.599962 35.3467 0.605407C35.1879 0.61034 34.8557 0.621733 34.4091 0.64599C34.0513 0.66542 33.1295 0.718528 31.9265 0.844584C31.3233 0.90779 30.277 1.02749 28.9769 1.23841C27.998 1.39724 25.2561 1.85774 21.854 2.89993L53.4876 106.163C47.95 107.86 43.2211 108.252 43.1813 108.257C41.8671 108.394 40.801 108.458 40.2663 108.487C39.1271 108.549 38.1318 108.571 37.5576 108.581C36.3009 108.603 34.9311 108.602 33.6492 108.593L34.41 0.595236ZM22.2488 2.78062C13.0827 5.51216 6.75619 10.0697 3.22632 13.0575C-0.358783 16.092 -5.68738 21.4294 -9.81216 29.6427L86.7006 78.1122C82.4389 86.598 76.8673 92.2197 73.0016 95.4917C69.1911 98.7171 62.5463 103.465 53.0928 106.283L22.2488 2.78062ZM-9.96355 29.9465C-11.3354 32.7215 -12.2119 35.0995 -12.7336 36.6501C-13.2816 38.2786 -13.6625 39.6694 -13.917 40.6807C-14.4122 42.6483 -14.695 44.2475 -14.8421 45.1507C-15.1365 46.9578 -15.2696 48.3753 -15.3194 48.9325C-15.4296 50.1644 -15.4651 51.0817 -15.4708 51.2234C-15.4893 51.6766 -15.4868 51.8287 -15.479 51.2966C-15.4656 50.3776 -15.4527 48.68 -15.4389 45.6777L92.56 46.1746C92.5464 49.1222 92.5319 51.3379 92.5094 52.8759C92.4993 53.5724 92.4816 54.5889 92.4399 55.6149C92.4224 56.043 92.3746 57.174 92.251 58.5555C92.1944 59.1877 92.0544 60.6641 91.7528 62.5152C91.6021 63.4405 91.3157 65.0581 90.8168 67.0403C90.4462 68.5127 89.3383 72.779 86.852 77.8084L-9.96355 29.9465ZM-15.4389 45.6835C-15.4231 42.1778 -15.4123 39.5869 -15.3759 37.9314C-15.3589 37.1567 -15.4202 29.7798 -12.6986 21.2637L90.1756 54.141C90.3229 53.6801 90.9074 51.855 91.4343 49.4573C91.9508 47.107 92.2188 45.1154 92.367 43.6934C92.5032 42.3862 92.5542 41.3921 92.5728 40.9929C92.5838 40.7548 92.5901 40.575 92.5933 40.4737C92.5966 40.3702 92.5979 40.3097 92.598 40.306C92.5981 40.3008 92.5974 40.3297 92.5963 40.402C92.5952 40.4734 92.5938 40.5739 92.5922 40.7101C92.5891 40.9875 92.5857 41.3596 92.5823 41.8629C92.5752 42.8795 92.5686 44.2507 92.56 46.1688L-15.4389 45.6835ZM-12.6662 21.1627C-8.58995 8.49397 1.07963 -6.11582 18.6666 -13.9489C37.0364 -22.1306 56.1853 -19.3423 70.3493 -11.1988L16.5182 82.4292C28.7452 89.4591 45.9161 92.1423 62.6074 84.7082C78.5157 77.6227 86.8062 64.6133 90.1432 54.242L-12.6662 21.1627ZM70.4189 -11.1587C76.7218 -7.52239 81.1436 -3.32788 83.8345 -0.415091C86.2333 2.18144 90.9218 7.68827 94.397 15.879L-5.0245 58.0615C-3.1719 62.428 -1.10374 65.6561 0.243945 67.5807C1.70969 69.674 3.17231 71.4283 4.50619 72.8721C6.7403 75.2904 10.6316 79.0332 16.4485 82.3891L70.4189 -11.1587ZM94.6475 16.4794C94.4761 16.0616 96.5592 20.7498 97.78 26.706C98.7399 31.389 98.8892 35.2954 98.9357 36.4235C99.0334 38.7962 99.0384 42.2817 99.0552 45.6668L-8.94349 46.2011C-8.95406 44.0641 -8.96076 42.6567 -8.96992 41.6267C-8.98038 40.4522 -8.98992 40.4532 -8.97284 40.8677C-8.9622 41.1261 -8.92632 41.9397 -8.82086 43.0559C-8.71233 44.2047 -8.49348 46.0836 -8.02058 48.3909C-7.50137 50.9241 -6.82805 53.2388 -6.09821 55.297C-5.5756 56.7708 -4.95212 58.2484 -5.27495 57.4612L94.6475 16.4794ZM99.0551 45.6495L99.0962 53.445L-8.90234 54.0139L-8.9434 46.2184L99.0551 45.6495ZM89.677 23.2562L89.8686 23.5366L0.708489 84.483L0.516847 84.2027L89.677 23.2562ZM90.1929 24.0165C91.1591 25.463 89.8466 23.4679 88.9262 22.216C87.4616 20.2238 84.4195 16.3533 79.6248 12.453C68.9166 3.74255 57.9922 1.67992 53.7388 1.06495C51.568 0.751078 49.8871 0.652539 49.1915 0.617092C48.4192 0.577741 47.8839 0.571071 47.8256 0.570262C47.7329 0.568974 47.7561 0.57004 48.0381 0.570454C48.3278 0.57088 48.6171 0.570533 49.1419 0.570533V108.571C48.5413 108.571 47.3143 108.574 46.3262 108.56C45.9286 108.554 42.3891 108.547 38.2842 107.953C33.5663 107.271 22.3779 105.105 11.4731 96.2346C6.58016 92.2545 3.45659 88.2899 1.91074 86.1872C0.909143 84.8248 -0.484446 82.7026 0.384195 84.0031L90.1929 24.0165ZM49.1419 0.570533H52.3588V108.571H49.1419V0.570533ZM19.7237 11.5478L19.9701 11.3609L85.2402 97.4063L84.9938 97.5932L19.7237 11.5478ZM19.4328 11.7739C17.3847 13.3683 15.8503 14.8053 14.9148 15.7221C13.8966 16.7199 13.0148 17.6659 12.2611 18.5235C11.0711 19.8775 8.91944 22.4577 6.73152 26.0962L99.2865 81.7521C95.9405 87.3164 91.395 92.6201 85.7776 96.9934L19.4328 11.7739ZM6.41726 26.6256L6.58153 26.3452L99.765 80.9424L99.6007 81.2227L6.41726 26.6256ZM-0.826605 53.52L-0.806072 44.5641L107.194 44.8117L107.173 53.7676L-0.826605 53.52ZM-0.806083 44.5687C-0.800909 42.2258 -0.798239 40.5625 -0.800658 39.3191C-0.80185 38.7064 -0.804194 38.2585 -0.807213 37.9278C-0.810301 37.5895 -0.81339 37.4571 -0.813338 37.4592C-0.81315 37.4669 -0.811503 37.5338 -0.807284 37.6478C-0.803074 37.7615 -0.795512 37.9437 -0.782585 38.1804C-0.757022 38.6484 -0.705602 39.422 -0.599654 40.4011C-0.545998 40.897 -0.480721 41.424 -0.40154 41.9779C-0.322005 42.5342 -0.235735 43.0665 -0.145929 43.5708C0.0300283 44.559 0.195633 45.2986 0.231709 45.4597L105.622 21.8613C107.603 30.7083 107.204 39.9551 107.194 44.8072L-0.806083 44.5687ZM0.201338 45.3233C3.21548 58.9497 14.2607 74.7753 34.4812 79.4802L58.9568 -25.7098C85.2689 -19.5875 101.105 1.44023 105.652 21.9978L0.201338 45.3233ZM34.5439 79.4948C37.4389 80.1647 39.6475 80.4026 40.3204 80.473C41.3067 80.5763 42.0976 80.6238 42.672 80.6481C43.2604 80.673 43.9606 80.6878 44.7858 80.6748C45.4502 80.6643 47.0296 80.6257 49.1331 80.3881L37.0088 -26.9292C41.4761 -27.4339 45.3309 -27.336 47.2361 -27.2554C48.692 -27.1938 53.445 -26.9854 58.8941 -25.7244L34.5439 79.4948ZM51.1111 -25.6692C66.5643 -24.0968 79.9426 -16.8931 89.6835 -6.25299L10.024 66.6741C13.0809 70.0132 17.4508 73.7662 23.3232 76.7726C29.2533 79.8085 35.1085 81.2601 40.1778 81.7759L51.1111 -25.6692ZM89.4352 -6.52235C98.3281 3.06013 102.847 13.9501 104.818 23.7133L-1.0454 45.0874C0.227683 51.3928 3.4464 59.5883 10.2723 66.9434L89.4352 -6.52235ZM104.846 23.8503C106.01 29.6946 105.976 34.7216 105.987 35.5972C106.009 37.3198 106.01 40.0512 106.01 44.135H-1.99029C-1.99029 41.9877 -1.99073 40.3976 -1.99307 39.1901C-1.99424 38.5902 -1.99582 38.1144 -1.99783 37.7331C-1.99988 37.3468 -2.00214 37.1029 -2.00397 36.9572C-2.00595 36.7998 -2.00637 36.8461 -2.0015 37.0172C-1.99713 37.1706 -1.98219 37.6592 -1.93944 38.3414C-1.89442 39.0599 -1.80968 40.1432 -1.64108 41.4655C-1.55617 42.1315 -1.45946 42.7842 -1.35292 43.4211C-1.24761 44.0506 -1.14764 44.575 -1.07288 44.9504L104.846 23.8503ZM106.01 44.135V53.2466H-1.99029V44.135H106.01ZM52.0097 107.247H49.1351V-0.753379H52.0097V107.247ZM49.1351 107.247H46.2605V-0.753379H49.1351V107.247ZM-7.73901 53.4875L-7.77323 45.8166L100.226 45.3348L100.26 53.0057L-7.73901 53.4875ZM-7.77297 45.8699C-7.78337 43.9604 -7.79074 42.6028 -7.79827 41.5865C-7.80199 41.0845 -7.80541 40.7134 -7.80868 40.4349C-7.81028 40.2982 -7.81169 40.1969 -7.81284 40.1241C-7.814 40.0505 -7.81468 40.0195 -7.81464 40.0216C-7.81461 40.0226 -7.81342 40.0778 -7.81039 40.1742C-7.80741 40.2692 -7.80168 40.4357 -7.79163 40.6559C-7.7735 41.0531 -7.72911 41.9064 -7.62063 43.0205C-7.50062 44.2529 -7.31344 45.6956 -7.01964 47.2925C-6.74513 48.7845 -6.46024 49.9379 -6.43342 50.0484L98.5163 24.5619C98.579 24.8203 98.8954 26.1076 99.1976 27.75C99.519 29.4973 99.7301 31.107 99.871 32.5536C100.102 34.9266 100.144 36.9604 100.159 37.6493C100.195 39.2784 100.207 41.8413 100.225 45.2816L-7.77297 45.8699ZM-6.39424 50.2086C-5.26041 54.8162 -3.00535 60.9423 1.48604 67.1686C6.09109 73.5526 11.6579 78.1156 16.9898 81.1865L70.8907 -12.4014C86.0761 -3.65553 95.0031 10.2845 98.4771 24.4017L-6.39424 50.2086ZM16.75 81.0476C30.7347 89.1978 48.4913 90.2567 63.9268 82.7016C78.4579 75.5891 86.3078 63.3114 89.4213 52.7615L-14.1619 22.1915C-10.1175 8.48759 -0.375139 -6.06808 16.4471 -14.302C34.1738 -22.9785 54.6201 -21.8845 71.1304 -12.2625L16.75 81.0476ZM89.2919 53.1933C89.7822 51.5817 90.3044 49.5851 90.7226 47.2781C91.0971 45.2125 91.2723 43.5321 91.3601 42.507C91.4457 41.5069 91.4782 40.7597 91.4895 40.4779C91.5021 40.1619 91.5049 39.9871 91.5035 40.054C91.5004 40.2134 91.4942 40.661 91.4869 41.7056C91.48 42.701 91.4735 44.0203 91.4648 45.8325L-16.5339 45.3189C-16.518 41.9757 -16.5069 39.5024 -16.4751 37.905C-16.4626 37.2782 -16.4282 35.4195 -16.2463 33.2948C-15.9768 30.1473 -15.3842 26.203 -14.0325 21.7597L89.2919 53.1933ZM91.4649 45.8166L91.4307 53.4875L-16.5682 53.0057L-16.534 45.3348L91.4649 45.8166ZM37.8251 107.245L34.6219 107.269L33.8342 -0.72858L37.0374 -0.751943L37.8251 107.245ZM34.4912 107.269L31.2949 107.285L30.7686 -0.7138L33.9649 -0.729375L34.4912 107.269ZM-22.9682 53.2856V40.981H85.0318V53.2856H-22.9682ZM-22.9682 40.981V28.6764H85.0318V40.981H-22.9682ZM31.0318 -25.3236H33.9406V82.6764H31.0318V-25.3236ZM33.9406 -25.3236H36.8495V82.6764H33.9406V-25.3236ZM90.8492 28.5019L90.856 30.6201L-17.1434 30.9691L-17.1502 28.8508L90.8492 28.5019ZM90.8563 30.7946V32.9207H-17.1437V30.7946H90.8563ZM-4.04927 -2.33175L-2.66671 -3.93602L79.1445 66.5688L77.7619 68.1731L-4.04927 -2.33175ZM-2.62804 -3.98084C-2.48075 -4.15138 -0.178131 -6.89176 2.40706 -9.37157C7.13788 -13.9095 11.4882 -16.5515 13.5717 -17.7667L67.9845 75.5244C68.022 75.5026 69.6068 74.5952 71.5323 73.2273C73.7661 71.6402 75.6464 70.029 77.1695 68.568C78.4358 67.3533 79.2835 66.402 79.3836 66.2905C79.5144 66.1446 79.5168 66.1377 79.1058 66.6137L-2.62804 -3.98084ZM13.667 -17.8222C27.5011 -25.8532 41.2475 -26.6896 51.2005 -25.6601L40.0884 81.7668C42.5741 82.0239 46.7892 82.2189 52.0149 81.3293C57.5615 80.385 62.9678 78.4369 67.8893 75.5799L13.667 -17.8222Z" fill="white" mask="url(#path-3-inside-1)"/>
<path d="M19.875 27.4543C19.5191 27.5867 18.9442 28.2564 18.8552 28.6536C18.8005 28.8794 18.7868 32.454 18.7936 41.1139L18.8142 53.2472L19.0195 53.5977C19.3138 54.0883 19.7313 54.4232 20.183 54.5322C20.4363 54.5945 21.3739 54.6101 23.0713 54.5945L25.5901 54.5711L25.9665 54.3297C26.3908 54.0571 26.7468 53.5821 26.8563 53.146C26.8973 52.9513 26.9247 48.9172 26.9247 40.966C26.9247 29.2766 26.9247 29.0663 26.7878 28.6536C26.6304 28.1707 26.2676 27.7424 25.8296 27.5166C25.5353 27.3608 25.3984 27.353 22.8181 27.3608C21.0386 27.3686 20.0324 27.3998 19.875 27.4543ZM25.5353 28.8639L25.7269 29.0508L25.7475 40.9115C25.7612 54.0805 25.8022 53.0447 25.3026 53.2083C25.1246 53.2706 24.2554 53.2861 22.6607 53.2706L20.272 53.2472L20.1077 53.0291L19.9435 52.8111V40.9348V29.0585L20.1146 28.8716L20.2788 28.677H22.8113H25.3437L25.5353 28.8639Z" fill="white"/>
<path d="M21.0814 15.0466C19.2158 15.3724 17.6882 16.8902 17.132 18.9722C16.956 19.6318 16.956 21.1734 17.132 21.833C17.5896 23.5653 18.7653 24.956 20.2648 25.5599C20.8139 25.7824 20.9476 25.7983 21.7502 25.7983C22.961 25.7983 23.6932 25.5361 24.6365 24.7414C25.4602 24.0501 26.2768 22.6197 26.4669 21.5231C26.5796 20.9112 26.5796 19.6953 26.4669 19.1629C26.3402 18.5272 25.8896 17.5259 25.4743 16.9617C24.8548 16.1114 23.834 15.3724 22.947 15.134C22.4682 14.9989 21.5601 14.9592 21.0814 15.0466ZM22.8062 16.5246C23.8199 16.8425 24.6717 17.7246 25.1293 18.9325C25.3757 19.5841 25.4109 20.8635 25.2068 21.6184C24.7351 23.3826 23.123 24.6381 21.5812 24.4554C20.3211 24.3044 19.3285 23.6607 18.723 22.5959C18.0824 21.4595 18.012 19.9178 18.54 18.6543C19.2933 16.8505 21.0391 15.9763 22.8062 16.5246Z" fill="white"/>
<mask id="path-7-inside-2" fill="white">
<path d="M42.5813 26.5607C40.8284 26.7514 39.1247 27.5938 37.9209 28.8652C37.6323 29.1752 37.3718 29.4215 37.3507 29.4215C37.3296 29.4215 37.3084 29.1593 37.3084 28.8414C37.3084 28.158 37.1817 27.8322 36.7945 27.4825L36.52 27.2362H33.1267H29.7335L29.4449 27.4507C28.8817 27.8719 28.9309 26.6481 28.945 41.1984L28.9661 54.1752L29.121 54.4215C29.2125 54.5566 29.4026 54.7394 29.5434 54.8189C29.7898 54.9619 30.0503 54.9699 33.2816 54.9937C35.5555 55.0096 36.8438 54.9858 37.0268 54.9301C37.3225 54.8427 37.6816 54.5407 37.8224 54.2626C37.8857 54.1355 37.9139 52.2203 37.942 46.1491C37.9772 38.3773 37.9843 38.1946 38.1251 37.7575C38.8854 35.4132 40.9622 34.4914 42.9545 35.6278C43.4543 35.9139 44.0456 36.5496 44.2428 37.0105C44.5877 37.8449 44.5807 37.686 44.6229 46.1571L44.6651 54.1116L44.8623 54.3977C45.2635 54.9937 45.1227 54.9699 48.8257 54.9699H52.1345L52.3879 54.7791C52.5217 54.6758 52.7118 54.4613 52.8033 54.3103L52.9722 54.0242L52.9934 44.8856C53.0145 35.3974 53.0004 34.8808 52.7188 33.6332C51.9303 30.097 49.4664 27.4428 46.3336 26.7197C45.5029 26.5289 43.574 26.4495 42.5813 26.5607ZM45.2283 27.9116C46.9602 28.0865 48.3259 28.7778 49.5579 30.1129C50.6209 31.2492 51.2897 32.624 51.6487 34.3881C51.7684 34.9841 51.7755 35.5881 51.7755 44.3214V53.6189H48.8187H45.8619L45.8267 45.7915C45.7845 38.0992 45.7845 37.9562 45.6367 37.3522C45.2917 35.9616 44.6159 35.0318 43.4754 34.3802C40.8777 32.8783 37.942 34.3087 36.9846 37.527C36.8579 37.9403 36.8508 38.4489 36.8156 45.7915L36.7804 53.6189L33.4858 53.6428L30.1981 53.6587V41.103V28.5474H33.1901H36.1821L36.1891 30.7089V32.8783L37.6112 31.2413C39.2163 29.3977 39.3852 29.2387 40.223 28.754C41.6028 27.9593 43.1375 27.6971 45.2283 27.9116Z"/>
</mask>
<path d="M42.5813 26.5607C40.8284 26.7514 39.1247 27.5938 37.9209 28.8652C37.6323 29.1752 37.3718 29.4215 37.3507 29.4215C37.3296 29.4215 37.3084 29.1593 37.3084 28.8414C37.3084 28.158 37.1817 27.8322 36.7945 27.4825L36.52 27.2362H33.1267H29.7335L29.4449 27.4507C28.8817 27.8719 28.9309 26.6481 28.945 41.1984L28.9661 54.1752L29.121 54.4215C29.2125 54.5566 29.4026 54.7394 29.5434 54.8189C29.7898 54.9619 30.0503 54.9699 33.2816 54.9937C35.5555 55.0096 36.8438 54.9858 37.0268 54.9301C37.3225 54.8427 37.6816 54.5407 37.8224 54.2626C37.8857 54.1355 37.9139 52.2203 37.942 46.1491C37.9772 38.3773 37.9843 38.1946 38.1251 37.7575C38.8854 35.4132 40.9622 34.4914 42.9545 35.6278C43.4543 35.9139 44.0456 36.5496 44.2428 37.0105C44.5877 37.8449 44.5807 37.686 44.6229 46.1571L44.6651 54.1116L44.8623 54.3977C45.2635 54.9937 45.1227 54.9699 48.8257 54.9699H52.1345L52.3879 54.7791C52.5217 54.6758 52.7118 54.4613 52.8033 54.3103L52.9722 54.0242L52.9934 44.8856C53.0145 35.3974 53.0004 34.8808 52.7188 33.6332C51.9303 30.097 49.4664 27.4428 46.3336 26.7197C45.5029 26.5289 43.574 26.4495 42.5813 26.5607ZM45.2283 27.9116C46.9602 28.0865 48.3259 28.7778 49.5579 30.1129C50.6209 31.2492 51.2897 32.624 51.6487 34.3881C51.7684 34.9841 51.7755 35.5881 51.7755 44.3214V53.6189H48.8187H45.8619L45.8267 45.7915C45.7845 38.0992 45.7845 37.9562 45.6367 37.3522C45.2917 35.9616 44.6159 35.0318 43.4754 34.3802C40.8777 32.8783 37.942 34.3087 36.9846 37.527C36.8579 37.9403 36.8508 38.4489 36.8156 45.7915L36.7804 53.6189L33.4858 53.6428L30.1981 53.6587V41.103V28.5474H33.1901H36.1821L36.1891 30.7089V32.8783L37.6112 31.2413C39.2163 29.3977 39.3852 29.2387 40.223 28.754C41.6028 27.9593 43.1375 27.6971 45.2283 27.9116Z" fill="white"/>
<path d="M42.5813 26.5607L48.5959 80.2247L48.509 80.2345L48.422 80.2439L42.5813 26.5607ZM37.9209 28.8652L-1.59551 -7.93765L-1.44418 -8.10013L-1.29153 -8.26135L37.9209 28.8652ZM36.7945 27.4825L72.8574 -12.7103L72.9217 -12.6527L72.9858 -12.5948L36.7945 27.4825ZM36.52 27.2362V-26.7638H57.1946L72.5829 -12.9567L36.52 27.2362ZM29.7335 27.2362L-2.48183 -16.1017L11.8614 -26.7638H29.7335V27.2362ZM29.4449 27.4507L-2.89495 -15.7943L-2.83277 -15.8408L-2.77047 -15.8871L29.4449 27.4507ZM28.945 41.1984L-25.0549 41.2863L-25.0549 41.2685L-25.0549 41.2506L28.945 41.1984ZM28.9661 54.1752L-16.7495 82.9168L-25.0085 69.7802L-25.0338 54.2631L28.9661 54.1752ZM29.121 54.4215L-15.5859 84.7084L-16.1034 83.9444L-16.5946 83.1631L29.121 54.4215ZM29.5434 54.8189L56.0853 7.79197L56.3709 7.95316L56.6545 8.11779L29.5434 54.8189ZM33.2816 54.9937L32.9042 108.992L32.8937 108.992L32.8832 108.992L33.2816 54.9937ZM37.0268 54.9301L21.325 3.26339L21.521 3.20382L21.7175 3.14574L37.0268 54.9301ZM37.8224 54.2626L86.1539 78.3471L86.0778 78.4998L86.0008 78.6519L37.8224 54.2626ZM37.942 46.1491L91.9415 46.3937L91.9415 46.3996L37.942 46.1491ZM38.1251 37.7575L-13.2737 21.1996L-13.2573 21.1488L-13.2409 21.098L38.1251 37.7575ZM42.9545 35.6278L69.7089 -11.2785L69.7436 -11.2587L69.7784 -11.2388L42.9545 35.6278ZM44.2428 37.0105L93.8927 15.7764L94.0213 16.0772L94.1462 16.3794L44.2428 37.0105ZM44.6229 46.1571L-9.37633 46.4438L-9.37638 46.4351L-9.37642 46.4263L44.6229 46.1571ZM44.6651 54.1116L0.19875 84.7505L-9.2457 71.0437L-9.33409 54.3984L44.6651 54.1116ZM44.8623 54.3977L89.3287 23.7588L89.4935 23.998L89.6557 24.239L44.8623 54.3977ZM52.1345 54.9699L84.6043 98.1174L70.183 108.97H52.1345V54.9699ZM52.3879 54.7791L85.3955 97.5167L85.1279 97.7234L84.8577 97.9267L52.3879 54.7791ZM52.8033 54.3103L99.2996 81.771L99.1425 82.0371L98.9823 82.3014L52.8033 54.3103ZM52.9722 54.0242L106.972 54.149L106.938 68.8375L99.4686 81.485L52.9722 54.0242ZM52.9934 44.8856L106.993 45.0058L106.993 45.0104L52.9934 44.8856ZM52.7188 33.6332L0.0438677 45.5223L0.0283662 45.4536L0.0130438 45.3849L52.7188 33.6332ZM46.3336 26.7197L58.4169 -25.9111L58.448 -25.9039L58.4792 -25.8967L46.3336 26.7197ZM45.2283 27.9116L39.8047 81.6386L39.7603 81.6341L39.7159 81.6296L45.2283 27.9116ZM49.5579 30.1129L10.1228 67.0029L9.99758 66.869L9.87329 66.7343L49.5579 30.1129ZM51.6487 34.3881L104.564 23.6189L104.578 23.6879L104.592 23.7569L51.6487 34.3881ZM51.7755 53.6189H105.775V107.619H51.7755V53.6189ZM45.8619 53.6189V107.619H-7.89578L-8.13752 53.8618L45.8619 53.6189ZM45.8267 45.7915L99.8259 45.495L99.8261 45.5218L99.8262 45.5487L45.8267 45.7915ZM45.6367 37.3522L98.0483 24.3514L98.0683 24.432L98.088 24.5127L45.6367 37.3522ZM43.4754 34.3802L16.6861 81.2666L16.5663 81.1982L16.4469 81.1291L43.4754 34.3802ZM36.9846 37.527L88.7429 52.9245L88.6782 53.142L88.6117 53.3589L36.9846 37.527ZM36.8156 45.7915L-17.1838 45.5487L-17.1838 45.5407L-17.1837 45.5327L36.8156 45.7915ZM36.7804 53.6189L90.7799 53.8618L90.5399 107.231L37.1712 107.618L36.7804 53.6189ZM33.4858 53.6428L33.8765 107.641L33.8117 107.642L33.7468 107.642L33.4858 53.6428ZM30.1981 53.6587L30.4592 107.658L-23.8019 107.92V53.6587H30.1981ZM30.1981 28.5474H-23.8019V-25.4526H30.1981V28.5474ZM36.1821 28.5474V-25.4526H90.0065L90.1818 28.3715L36.1821 28.5474ZM36.1891 30.7089L90.1888 30.533L90.1891 30.6209V30.7089H36.1891ZM36.1891 32.8783L76.9553 68.2918L-17.8109 177.382L-17.8109 32.8783H36.1891ZM37.6112 31.2413L-3.15502 -4.17226L-3.13559 -4.19463L-3.11613 -4.21698L37.6112 31.2413ZM40.223 28.754L13.1783 -17.9855L13.2258 -18.013L13.2733 -18.0404L40.223 28.754ZM48.422 80.2439C59.3033 79.0601 69.4594 74.0969 77.1334 65.9918L-1.29153 -8.26135C8.79006 -18.9094 22.3535 -25.5572 36.7406 -27.1225L48.422 80.2439ZM77.4373 65.6681C76.6942 66.466 75.8925 67.2871 75.0567 68.0946C74.6995 68.4398 73.9516 69.1554 72.9855 70.0014C72.6067 70.3332 71.4717 71.3235 69.9417 72.4805C69.2846 72.9775 67.5196 74.298 65.1066 75.7434C63.9375 76.4437 61.5876 77.7983 58.442 79.1327C56.5416 79.9388 48.4215 83.4215 37.3507 83.4215V-24.5785C31.148 -24.5785 26.2332 -23.5048 23.3684 -22.7367C20.3137 -21.9178 17.879 -20.9759 16.2647 -20.2911C13.1214 -18.9576 10.7742 -17.6045 9.60817 -16.9061C7.20149 -15.4644 5.44456 -14.1496 4.7971 -13.6599C3.2865 -12.5175 2.17765 -11.5489 1.8307 -11.2451C0.928433 -10.4549 0.267666 -9.82025 0.0142247 -9.57539C-0.613841 -8.96857 -1.14102 -8.42565 -1.59551 -7.93765L77.4373 65.6681ZM37.3507 83.4215C8.08366 83.4215 -6.00483 61.7741 -7.76414 59.1003C-11.5718 53.3133 -13.3306 48.1513 -13.883 46.4953C-15.2358 42.4392 -15.784 39.1253 -15.9229 38.2964C-16.3279 35.8784 -16.4775 33.9485 -16.5262 33.301C-16.657 31.5624 -16.6916 30.0315 -16.6916 28.8414H91.3084C91.3084 27.9692 91.2845 26.7283 91.1695 25.2003C91.1287 24.6581 90.9883 22.8137 90.5932 20.4547C90.4593 19.6554 89.9162 16.3644 88.5686 12.324C88.0188 10.6758 86.2627 5.51968 82.4576 -0.263331C80.5143 -3.21681 76.65 -8.4884 70.2195 -13.4221C63.4064 -18.6494 52.1593 -24.5785 37.3507 -24.5785V83.4215ZM-16.6916 28.8414C-16.6916 31.1977 -16.5905 38.5171 -13.2771 47.2304C-9.5037 57.1535 -3.60031 63.7639 0.603267 67.5599L72.9858 -12.5948C77.5766 -8.44917 83.7369 -1.50102 87.6705 8.8432C91.144 17.9777 91.3084 25.8017 91.3084 28.8414H-16.6916ZM0.731608 67.6754L0.457052 67.429L72.5829 -12.9567L72.8574 -12.7103L0.731608 67.6754ZM36.52 81.2362H33.1267V-26.7638H36.52V81.2362ZM33.1267 81.2362H29.7335V-26.7638H33.1267V81.2362ZM61.9488 70.5741L61.6602 70.7886L-2.77047 -15.8871L-2.48183 -16.1017L61.9488 70.5741ZM61.7847 70.6958C59.2791 72.5695 57.1629 73.8067 56.4305 74.2314C54.8643 75.1394 57.4347 73.6919 59.3606 72.3988C62.2187 70.48 66.2521 67.3754 70.2313 62.7214C74.1859 58.0963 76.8729 53.3663 78.6865 49.1751C81.8112 41.9537 82.5024 35.8302 82.6567 34.5338C82.8956 32.5278 82.9399 31.0697 82.9436 30.9676C82.9549 30.652 82.9403 30.9319 82.938 33.0325C82.9358 34.8962 82.9414 37.4019 82.945 41.1461L-25.0549 41.2506C-25.061 35.0109 -25.0904 29.9703 -24.9866 27.0847C-24.9548 26.1999 -24.8733 24.1798 -24.5857 21.7645C-24.3826 20.0589 -23.6312 13.6789 -20.4321 6.28562C-18.5814 2.00851 -15.8536 -2.78623 -11.8546 -7.46341C-7.83078 -12.1695 -3.74897 -15.3136 -0.838413 -17.2676C1.14008 -18.5959 3.76714 -20.0745 2.26211 -19.202C1.59081 -18.8128 -0.459788 -17.6154 -2.89495 -15.7943L61.7847 70.6958ZM82.945 41.1105L82.9661 54.0873L-25.0338 54.2631L-25.0549 41.2863L82.945 41.1105ZM74.6818 25.4336L74.8367 25.6799L-16.5946 83.1631L-16.7495 82.9168L74.6818 25.4336ZM73.8279 24.1347C71.0199 19.9897 68.2059 17.1008 66.4474 15.4353C65.3794 14.4237 64.1055 13.3027 62.6168 12.1431C61.2324 11.0645 59.0161 9.44613 56.0853 7.79197L3.00156 101.846C-5.26095 97.1824 -11.3975 90.891 -15.5859 84.7084L73.8279 24.1347ZM56.6545 8.11779C54.8254 7.05598 52.1234 5.63171 48.6899 4.3374C45.3697 3.08581 42.4008 2.34492 40.0511 1.88955C36.1041 1.12463 32.9953 1.01812 32.7588 1.00731C31.9431 0.970024 31.4502 0.97872 33.68 0.995171L32.8832 108.992C31.8817 108.985 29.6429 108.978 27.8275 108.895C26.9759 108.856 14.9457 108.784 2.43237 101.52L56.6545 8.11779ZM33.659 0.995021C34.6208 1.00174 35.0113 0.99669 35.0007 0.996876C34.9743 0.997333 34.8671 0.999281 34.6976 1.0045C34.5444 1.00922 34.2187 1.02028 33.7788 1.04398C33.4271 1.06293 32.5151 1.11501 31.3234 1.23889C30.7259 1.301 29.6884 1.41875 28.3986 1.62633C27.7364 1.73291 26.8328 1.89106 25.7657 2.11816C24.7503 2.33426 23.1935 2.69554 21.325 3.26339L52.7287 106.597C47.2261 108.269 42.5293 108.656 42.4899 108.66C41.1838 108.796 40.1233 108.859 39.5896 108.888C38.453 108.949 37.4568 108.971 36.8759 108.981C35.6069 109.003 34.2163 109.002 32.9042 108.992L33.659 0.995021ZM21.7175 3.14574C12.606 5.83944 6.29775 10.341 2.75726 13.314C-0.823077 16.3204 -6.19019 21.644 -10.3561 29.8733L86.0008 78.6519C81.6941 87.1593 76.0771 92.773 72.2081 96.0218C68.379 99.2372 61.7434 103.933 52.3362 106.715L21.7175 3.14574ZM-10.5092 30.1781C-11.8969 32.963 -12.7846 35.3515 -13.3136 36.9115C-13.869 38.5491 -14.2554 39.9483 -14.5137 40.9664C-15.0161 42.947 -15.3031 44.5573 -15.4526 45.4673C-15.7514 47.2876 -15.8866 48.7155 -15.9372 49.2768C-16.0491 50.5173 -16.085 51.4407 -16.0908 51.5817C-16.1094 52.0349 -16.1068 52.1829 -16.0987 51.6389C-16.0849 50.6973 -16.0716 48.9619 -16.0574 45.8987L91.9415 46.3996C91.9275 49.4076 91.9126 51.6653 91.8895 53.2309C91.8791 53.9405 91.861 54.9705 91.8184 56.0083C91.8007 56.4416 91.752 57.5829 91.6263 58.9762C91.5688 59.6139 91.4265 61.1019 91.1202 62.9672C90.9671 63.8997 90.6763 65.5287 90.17 67.5243C89.7932 69.0096 88.6701 73.2978 86.1539 78.3471L-10.5092 30.1781ZM-16.0574 45.9046C-16.0412 42.3236 -16.0301 39.6878 -15.9928 38.006C-15.9751 37.2084 -16.0362 29.7749 -13.2737 21.1996L89.5239 54.3154C89.6728 53.8532 90.2655 52.0172 90.8 49.6043C91.3242 47.2383 91.5962 45.233 91.7466 43.8009C91.8848 42.4848 91.9366 41.4845 91.9553 41.084C91.9665 40.8451 91.9728 40.665 91.9761 40.5642C91.9793 40.4612 91.9806 40.4017 91.9807 40.3996C91.9808 40.396 91.9801 40.4269 91.9789 40.5018C91.9777 40.5758 91.9763 40.6792 91.9747 40.819C91.9714 41.1034 91.968 41.4842 91.9644 41.9983C91.9571 43.0366 91.9503 44.4367 91.9415 46.3937L-16.0574 45.9046ZM-13.2409 21.098C-9.09 8.29968 0.693167 -6.24684 18.2533 -14.0058C36.5304 -22.0816 55.5679 -19.3442 69.7089 -11.2785L16.2 82.5341C28.3487 89.4634 45.3517 92.0936 61.9023 84.7806C77.7358 77.7846 86.1005 64.8711 89.491 54.417L-13.2409 21.098ZM69.7784 -11.2388C76.0802 -7.63195 80.5168 -3.46129 83.2303 -0.547392C85.6393 2.03944 90.3762 7.55417 93.8927 15.7764L-5.40716 58.2446C-3.53327 62.6262 -1.44432 65.8591 -0.0889993 67.7793C1.38652 69.8698 2.85654 71.6185 4.19394 73.0546C6.43756 75.4639 10.3285 79.1736 16.1305 82.4944L69.7784 -11.2388ZM94.1462 16.3794C93.9725 15.9591 96.0857 20.6767 97.3249 26.6747C98.3001 31.3951 98.4524 35.3354 98.4999 36.4802C98.5997 38.8855 98.605 42.4241 98.6222 45.8878L-9.37642 46.4263C-9.38729 44.2465 -9.39418 42.8087 -9.40363 41.7559C-9.41438 40.5576 -9.42424 40.5489 -9.40718 40.9599C-9.3965 41.217 -9.36022 42.0342 -9.2533 43.157C-9.14324 44.3127 -8.9212 46.2039 -8.44142 48.5261C-7.9147 51.0756 -7.23199 53.4034 -6.49292 55.4711C-5.96395 56.951 -5.33301 58.4343 -5.66072 57.6416L94.1462 16.3794ZM98.6221 45.8703L98.6644 53.8249L-9.33409 54.3984L-9.37633 46.4438L98.6221 45.8703ZM89.1315 23.4728L89.3287 23.7588L0.395868 85.0366L0.19875 84.7505L89.1315 23.4728ZM89.6557 24.239C90.6308 25.6873 89.3082 23.6929 88.3815 22.4423C86.9034 20.4477 83.8471 16.5926 79.0423 12.7152C68.3436 4.08149 57.4647 2.05561 53.273 1.45437C51.1228 1.14594 49.4601 1.0494 48.7764 1.01484C48.0166 0.97643 47.4932 0.970068 47.4444 0.969397C47.3615 0.968255 47.3953 0.969354 47.6874 0.969779C47.9873 0.970217 48.2887 0.969862 48.8257 0.969862V108.97C48.197 108.97 46.9554 108.973 45.9569 108.959C45.5446 108.953 42.0206 108.946 37.9387 108.36C33.2692 107.69 22.1188 105.559 11.2179 96.7619C6.31201 92.8029 3.17202 88.8519 1.61033 86.7445C0.6 85.3811 -0.805962 83.2571 0.0688361 84.5564L89.6557 24.239ZM48.8257 0.969862H52.1345V108.97H48.8257V0.969862ZM19.6647 11.8223L19.9181 11.6316L84.8577 97.9267L84.6043 98.1174L19.6647 11.8223ZM19.3803 12.0416C17.3304 13.6248 15.7933 15.0528 14.8546 15.9654C13.8335 16.9581 12.9484 17.9 12.1914 18.7545C10.9982 20.1014 8.83119 22.6783 6.62428 26.3192L98.9823 82.3014C95.6015 87.879 91.0232 93.1703 85.3955 97.5167L19.3803 12.0416ZM6.30697 26.8495L6.47593 26.5635L99.4686 81.485L99.2996 81.771L6.30697 26.8495ZM-1.02761 53.8994L-1.00649 44.7608L106.993 45.0104L106.972 54.149L-1.02761 53.8994ZM-1.0065 44.7654C-1.00118 42.375 -0.998433 40.6764 -1.00092 39.4059C-1.00215 38.7798 -1.00457 38.3211 -1.00769 37.9815C-1.00922 37.8152 -1.01078 37.6934 -1.01211 37.608C-1.01344 37.5219 -1.01432 37.487 -1.01417 37.4931C-1.01403 37.4987 -1.01242 37.5641 -1.0082 37.6771C-1.00399 37.7898 -0.996389 37.9717 -0.983342 38.2087C-0.957542 38.6773 -0.90551 39.4544 -0.798137 40.4388C-0.74376 40.9373 -0.677595 41.4673 -0.597328 42.0243C-0.516703 42.5837 -0.42926 43.119 -0.338255 43.626C-0.159966 44.6193 0.00773997 45.3623 0.0438677 45.5223L105.394 21.7441C107.409 30.6725 107.004 39.9981 106.993 45.0058L-1.0065 44.7654ZM0.0130438 45.3849C3.07849 59.1333 14.2196 74.7267 34.188 79.3361L58.4792 -25.8967C84.7131 -19.8411 100.782 1.06067 105.425 21.8815L0.0130438 45.3849ZM34.2504 79.3504C37.118 80.0088 39.3008 80.2415 39.957 80.3097C40.9247 80.4102 41.697 80.4561 42.2542 80.4795C42.8254 80.5034 43.5072 80.5178 44.3141 80.5052C44.9613 80.4951 46.5174 80.4577 48.5959 80.2247L36.5667 -27.1033C41.0168 -27.602 44.867 -27.5059 46.7822 -27.4256C48.2507 -27.3639 52.9921 -27.1565 58.4169 -25.9111L34.2504 79.3504ZM50.652 -25.8153C66.0322 -24.2627 79.4255 -17.1468 89.2425 -6.50862L9.87329 66.7343C12.934 70.0511 17.2926 73.7598 23.1277 76.7234C29.0141 79.713 34.8087 81.1342 39.8047 81.6386L50.652 -25.8153ZM88.993 -6.77716C97.9624 2.81111 102.556 13.7503 104.564 23.6189L-1.26652 45.1573C0.0238597 51.4977 3.27939 59.6873 10.1228 67.0029L88.993 -6.77716ZM104.592 23.7569C105.775 29.6485 105.741 34.7182 105.753 35.6179C105.775 37.3703 105.775 40.1519 105.775 44.3214H-2.22454C-2.22454 42.1304 -2.225 40.5072 -2.22741 39.2743C-2.22861 38.6618 -2.23024 38.1754 -2.23232 37.7854C-2.23442 37.3902 -2.23676 37.1396 -2.23867 36.9887C-2.24074 36.8261 -2.24122 36.8695 -2.23635 37.0393C-2.23199 37.1913 -2.21689 37.6817 -2.17357 38.3677C-2.12793 39.0901 -2.04197 40.1806 -1.87087 41.5119C-1.78469 42.1823 -1.68655 42.8394 -1.57846 43.4805C-1.47161 44.1142 -1.37021 44.6419 -1.29441 45.0193L104.592 23.7569ZM105.775 44.3214V53.6189H-2.22454V44.3214H105.775ZM51.7755 107.619H48.8187V-0.381062H51.7755V107.619ZM48.8187 107.619H45.8619V-0.381062H48.8187V107.619ZM-8.13752 53.8618L-8.17272 46.0344L99.8262 45.5487L99.8614 53.3761L-8.13752 53.8618ZM-8.17245 46.088C-8.18315 44.1399 -8.19074 42.7538 -8.19849 41.7159C-8.20232 41.2033 -8.20585 40.8235 -8.20922 40.5379C-8.21088 40.3978 -8.21234 40.2935 -8.21354 40.2181C-8.21475 40.142 -8.21548 40.1088 -8.21547 40.1094C-8.21544 40.1107 -8.21514 40.124 -8.21451 40.1479C-8.21388 40.1717 -8.21284 40.2093 -8.21127 40.2588C-8.20828 40.3532 -8.2025 40.5199 -8.19234 40.7407C-8.17402 41.139 -8.12903 41.9974 -8.01896 43.1189C-7.89717 44.3596 -7.70721 45.8121 -7.40909 47.4196C-7.1306 48.9212 -6.84164 50.0817 -6.81473 50.1917L98.088 24.5127C98.1519 24.7737 98.4732 26.0708 98.7802 27.7259C99.1067 29.4868 99.3213 31.1097 99.4645 32.569C99.6995 34.9633 99.7425 37.0171 99.7581 37.7181C99.7947 39.3733 99.8066 41.9805 99.8259 45.495L-8.17245 46.088ZM-6.77497 50.353C-5.62529 54.9879 -3.34365 61.1255 1.17951 67.3461C5.81082 73.7154 11.3868 78.2387 16.6861 81.2666L70.2647 -12.5062C85.4619 -3.82303 94.5116 10.0934 98.0483 24.3514L-6.77497 50.353ZM16.4469 81.1291C30.3293 89.1554 47.9004 90.1898 63.2023 82.7596C77.6605 75.739 85.5818 63.5504 88.7429 52.9245L-14.7737 22.1296C-10.6552 8.28529 -0.787369 -6.22767 16.0275 -14.3926C33.686 -22.9671 54.0237 -21.8969 70.5039 -12.3687L16.4469 81.1291ZM88.6117 53.3589C89.1085 51.7387 89.6383 49.7294 90.0628 47.4067C90.4428 45.3268 90.6207 43.6348 90.7097 42.6028C90.7966 41.5962 90.8295 40.8448 90.8409 40.5629C90.8537 40.2465 90.8564 40.073 90.8549 40.1438C90.8516 40.3111 90.8452 40.7716 90.8378 41.8378C90.8307 42.8543 90.8239 44.2013 90.815 46.0504L-17.1837 45.5327C-17.1674 42.1181 -17.1559 39.6011 -17.1233 37.9777C-17.1105 37.3391 -17.0754 35.4616 -16.8904 33.3174C-16.6163 30.1416 -16.014 26.1677 -14.6424 21.6952L88.6117 53.3589ZM90.8151 46.0344L90.7799 53.8618L-17.219 53.3761L-17.1838 45.5487L90.8151 46.0344ZM37.1712 107.618L33.8765 107.641L33.095 -0.355809L36.3897 -0.379649L37.1712 107.618ZM33.7468 107.642L30.4592 107.658L29.9371 -0.340698L33.2247 -0.356591L33.7468 107.642ZM-23.8019 53.6587V41.103H84.1981V53.6587H-23.8019ZM-23.8019 41.103V28.5474H84.1981V41.103H-23.8019ZM30.1981 -25.4526H33.1901V82.5474H30.1981V-25.4526ZM33.1901 -25.4526H36.1821V82.5474H33.1901V-25.4526ZM90.1818 28.3715L90.1888 30.533L-17.8106 30.8847L-17.8177 28.7233L90.1818 28.3715ZM90.1891 30.7089V32.8783H-17.8109V30.7089H90.1891ZM-4.57709 -2.53525L-3.15502 -4.17226L78.3773 66.6548L76.9553 68.2918L-4.57709 -2.53525ZM-3.11613 -4.21698C-2.94883 -4.40914 -0.624938 -7.15225 1.97912 -9.63032C6.73056 -14.1519 11.0911 -16.7779 13.1783 -17.9855L67.2677 75.4935C67.2979 75.476 68.8763 74.5797 70.7965 73.2264C73.0263 71.6548 74.9061 70.0571 76.4305 68.6064C77.6974 67.4008 78.5443 66.4578 78.6395 66.3525C78.7653 66.2133 78.7607 66.2145 78.3384 66.6995L-3.11613 -4.21698ZM13.2733 -18.0404C27.099 -26.0028 40.8059 -26.8257 50.7407 -25.8063L39.7159 81.6296C42.1449 81.8788 46.2945 82.0713 51.4519 81.2003C56.9274 80.2755 62.2827 78.3646 67.1726 75.5484L13.2733 -18.0404Z" fill="white" mask="url(#path-7-inside-2)"/>
<path d="M18.7229 27.3003C18.3568 27.4354 17.7654 28.1188 17.6739 28.5241C17.6176 28.7546 17.6035 32.402 17.6106 41.2387L17.6317 53.6195L17.8429 53.9771C18.1456 54.4777 18.575 54.8194 19.0397 54.9307C19.3001 54.9943 20.2646 55.0102 22.0105 54.9943L24.6012 54.9704L24.9884 54.7241C25.4249 54.446 25.7909 53.9612 25.9036 53.5162C25.9458 53.3175 25.974 49.2012 25.974 41.0877C25.974 29.1598 25.974 28.9453 25.8332 28.5241C25.6713 28.0314 25.2981 27.5943 24.8476 27.3639C24.5449 27.205 24.4041 27.197 21.75 27.205C19.9196 27.2129 18.8848 27.2447 18.7229 27.3003ZM24.5449 28.7387L24.742 28.9294L24.7631 41.0321C24.7772 54.4698 24.8194 53.4129 24.3055 53.5798C24.1225 53.6433 23.2284 53.6592 21.5881 53.6433L19.1312 53.6195L18.9622 53.397L18.7933 53.1745V41.0559V28.9373L18.9693 28.7466L19.1382 28.5479H21.743H24.3477L24.5449 28.7387Z" fill="white"/>
</svg>
