<svg width="71" height="70" viewBox="0 0 71 70" fill="none" xmlns="http://www.w3.org/2000/svg">
<circle cx="35.1226" cy="35" r="33" stroke="white" stroke-width="4"/>
<path d="M15.9553 47.851C19.8438 50.3185 24.3693 51.6222 29.0418 51.6222C35.8843 51.6222 42.1545 48.9937 46.6993 44.2215C51.048 39.654 53.4403 33.5167 53.3213 27.2885C54.9698 25.878 56.9088 23.1847 56.9088 20.5597C56.9088 19.5535 55.8168 18.9147 54.9313 19.4275C53.3825 20.3375 51.9703 20.5755 50.5178 20.1677C47.5515 17.2767 43.1363 16.6677 39.4158 18.6732C36.1643 20.4232 34.3565 23.6257 34.5193 27.1257C29.026 26.4555 23.951 23.701 20.4125 19.4205C19.8315 18.7222 18.729 18.8045 18.267 19.5955C16.5625 22.5145 16.58 25.8972 18.0623 28.629C17.357 28.7532 16.9213 29.3465 16.9213 29.9887C16.9213 32.7345 18.1568 35.258 20.1465 36.98C19.7755 37.337 19.653 37.8672 19.8105 38.3397C20.6855 40.9682 22.6665 43.0227 25.1428 44.0517C22.4495 45.338 19.471 45.7667 16.8198 45.4412C15.4478 45.2557 14.7705 47.1002 15.9553 47.851V47.851ZM29.4005 44.5015C30.3823 43.7472 29.8608 42.1757 28.6288 42.1495C26.4588 42.104 24.483 41.0347 23.2528 39.353C23.846 39.3145 24.4603 39.2235 25.0448 39.066C26.3765 38.7055 26.3135 36.784 24.9608 36.5127C22.5055 36.0192 20.5788 34.2307 19.856 31.9277C20.5158 32.0905 21.1878 32.1815 21.858 32.1937C23.1863 32.2007 23.6885 30.498 22.6053 29.7857C20.164 28.1775 19.1228 25.3372 19.8123 22.6667C24.0753 26.9857 29.859 29.588 35.977 29.882C36.8538 29.9362 37.5118 29.112 37.3193 28.2772C36.488 24.674 38.5005 22.1487 40.6618 20.985C42.8003 19.83 46.2338 19.4695 48.8658 22.231C49.648 23.0552 52.287 23.0867 53.6293 22.7735C53.0273 23.9075 52.1015 24.9837 51.2353 25.5892C50.866 25.8482 50.6543 26.2787 50.677 26.7285C50.9588 32.4772 48.8168 38.1927 44.8005 42.4085C40.7545 46.6557 35.1598 48.9955 29.0435 48.9955C26.611 48.9955 24.2258 48.6 21.9718 47.837C24.6668 47.3155 27.227 46.1745 29.4005 44.5015V44.5015Z" fill="white"/>
</svg>
